<mxfile host="app.diagrams.net" modified="2023-10-25T08:23:30.801Z" agent="Mozilla/5.0 (Windows NT 10.0; Win64; x64) AppleWebKit/537.36 (KHTML, like Gecko) Chrome/118.0.0.0 Safari/537.36" etag="lvvfrIFZmwnU_Fy-bTjg" version="22.0.7" type="github">
  <diagram name="Page-1" id="74e2e168-ea6b-b213-b513-2b3c1d86103e">
    <mxGraphModel dx="957" dy="439" grid="1" gridSize="10" guides="1" tooltips="1" connect="1" arrows="1" fold="1" page="1" pageScale="1" pageWidth="1100" pageHeight="850" background="none" math="0" shadow="0">
      <root>
        <mxCell id="0" />
        <mxCell id="1" parent="0" />
        <mxCell id="77e6c97f196da883-1" value="Pool" style="swimlane;html=1;childLayout=stackLayout;startSize=20;rounded=0;shadow=0;labelBackgroundColor=none;strokeWidth=1;fontFamily=Verdana;fontSize=8;align=center;" parent="1" vertex="1">
          <mxGeometry x="70" y="40" width="1050" height="750" as="geometry" />
        </mxCell>
        <mxCell id="77e6c97f196da883-2" value="提升机*2&lt;span style=&quot;white-space: pre;&quot;&gt;&#x9;&lt;/span&gt;" style="swimlane;html=1;startSize=20;" parent="77e6c97f196da883-1" vertex="1">
          <mxGeometry y="20" width="160" height="730" as="geometry" />
        </mxCell>
        <mxCell id="77e6c97f196da883-8" value="提升机在二层：人工放入货架，按下去1层按钮" style="rounded=1;whiteSpace=wrap;html=1;shadow=0;labelBackgroundColor=none;strokeWidth=1;fontFamily=Verdana;fontSize=8;align=center;" parent="77e6c97f196da883-2" vertex="1">
          <mxGeometry x="20" y="65" width="100" height="60" as="geometry" />
        </mxCell>
        <mxCell id="77e6c97f196da883-26" style="edgeStyle=orthogonalEdgeStyle;rounded=1;html=1;labelBackgroundColor=none;startArrow=none;startFill=0;startSize=5;endArrow=classicThin;endFill=1;endSize=5;jettySize=auto;orthogonalLoop=1;strokeWidth=1;fontFamily=Verdana;fontSize=8;entryX=0;entryY=0.5;entryDx=0;entryDy=0;" parent="77e6c97f196da883-1" source="77e6c97f196da883-8" target="7OfbRRR_8dRWuwGR9oJ1-2" edge="1">
          <mxGeometry relative="1" as="geometry">
            <mxPoint x="190" y="115" as="targetPoint" />
          </mxGeometry>
        </mxCell>
        <mxCell id="77e6c97f196da883-3" value="提升机控制盒*2" style="swimlane;html=1;startSize=20;" parent="77e6c97f196da883-1" vertex="1">
          <mxGeometry x="160" y="20" width="180" height="730" as="geometry" />
        </mxCell>
        <mxCell id="7OfbRRR_8dRWuwGR9oJ1-2" value="input:1层到位IO信号&lt;br&gt;output：锁梯IO信号" style="rounded=1;whiteSpace=wrap;html=1;shadow=0;labelBackgroundColor=none;strokeWidth=1;fontFamily=Verdana;fontSize=8;align=center;" vertex="1" parent="77e6c97f196da883-3">
          <mxGeometry x="30" y="65" width="130" height="60" as="geometry" />
        </mxCell>
        <mxCell id="7OfbRRR_8dRWuwGR9oJ1-3" value="上报TCS生成任务：当前提升机(L1&amp;amp;L2)-Q1" style="whiteSpace=wrap;html=1;fontSize=8;fontFamily=Verdana;rounded=1;shadow=0;labelBackgroundColor=none;strokeWidth=1;" vertex="1" parent="77e6c97f196da883-3">
          <mxGeometry x="40" y="150" width="100" height="60" as="geometry" />
        </mxCell>
        <mxCell id="7OfbRRR_8dRWuwGR9oJ1-4" value="" style="endArrow=classic;html=1;rounded=0;entryX=0.5;entryY=0;entryDx=0;entryDy=0;exitX=0.458;exitY=0.971;exitDx=0;exitDy=0;exitPerimeter=0;" edge="1" parent="77e6c97f196da883-3" source="7OfbRRR_8dRWuwGR9oJ1-2" target="7OfbRRR_8dRWuwGR9oJ1-3">
          <mxGeometry width="50" height="50" relative="1" as="geometry">
            <mxPoint x="90" y="130" as="sourcePoint" />
            <mxPoint x="140" y="80" as="targetPoint" />
          </mxGeometry>
        </mxCell>
        <mxCell id="77e6c97f196da883-4" value="TCS(任务控制系统)" style="swimlane;html=1;startSize=20;" parent="77e6c97f196da883-1" vertex="1">
          <mxGeometry x="340" y="20" width="230" height="730" as="geometry" />
        </mxCell>
        <mxCell id="7OfbRRR_8dRWuwGR9oJ1-5" value="生成任务：货架搬运(L1&amp;amp;L2)-Q1，记录提升机编号，执行回梯任务时需要用到" style="whiteSpace=wrap;html=1;fontSize=8;fontFamily=Verdana;rounded=1;shadow=0;labelBackgroundColor=none;strokeWidth=1;fillColor=#FFFFFF;" vertex="1" parent="77e6c97f196da883-4">
          <mxGeometry x="50" y="65" width="115" height="75" as="geometry" />
        </mxCell>
        <mxCell id="77e6c97f196da883-5" value="RCS-2000" style="swimlane;html=1;startSize=20;" parent="77e6c97f196da883-1" vertex="1">
          <mxGeometry x="570" y="20" width="160" height="730" as="geometry" />
        </mxCell>
        <mxCell id="77e6c97f196da883-6" value="AGV" style="swimlane;html=1;startSize=20;" parent="77e6c97f196da883-1" vertex="1">
          <mxGeometry x="730" y="20" width="160" height="730" as="geometry" />
        </mxCell>
        <mxCell id="77e6c97f196da883-7" value="月台控制盒" style="swimlane;html=1;startSize=20;" parent="77e6c97f196da883-1" vertex="1">
          <mxGeometry x="890" y="20" width="160" height="730" as="geometry" />
        </mxCell>
        <mxCell id="7OfbRRR_8dRWuwGR9oJ1-6" value="" style="endArrow=classic;html=1;rounded=0;exitX=1;exitY=0.5;exitDx=0;exitDy=0;entryX=0;entryY=0.5;entryDx=0;entryDy=0;" edge="1" parent="77e6c97f196da883-1" source="7OfbRRR_8dRWuwGR9oJ1-3" target="7OfbRRR_8dRWuwGR9oJ1-5">
          <mxGeometry width="50" height="50" relative="1" as="geometry">
            <mxPoint x="310" y="200" as="sourcePoint" />
            <mxPoint x="360" y="150" as="targetPoint" />
            <Array as="points">
              <mxPoint x="360" y="200" />
              <mxPoint x="360" y="123" />
            </Array>
          </mxGeometry>
        </mxCell>
      </root>
    </mxGraphModel>
  </diagram>
</mxfile>
